<?xml version="1.0" standalone="no"?>
<!DOCTYPE svg PUBLIC "-//W3C//DTD SVG 20010904//EN"
 "http://www.w3.org/TR/2001/REC-SVG-20010904/DTD/svg10.dtd">
<svg version="1.0" xmlns="http://www.w3.org/2000/svg"
 width="502.000000pt" height="502.000000pt" viewBox="0 0 502.000000 502.000000"
 preserveAspectRatio="xMidYMid meet">
<metadata>
Created by potrace 1.14, written by Peter Selinger 2001-2017
</metadata>
<g transform="translate(0.000000,502.000000) scale(0.100000,-0.100000)"
fill="#000000" stroke="none">
<path d="M2298 5014 c-3 -2 -31 -7 -64 -10 -32 -3 -70 -7 -84 -9 -14 -2 -42
-7 -64 -10 -46 -8 -56 -10 -121 -25 -27 -6 -59 -14 -71 -16 -53 -10 -264 -80
-339 -112 -52 -22 -259 -125 -310 -154 -94 -54 -266 -177 -360 -257 -89 -77
-290 -289 -355 -376 -41 -55 -78 -101 -82 -103 -5 -2 -8 -8 -8 -12 0 -5 -25
-48 -56 -95 -136 -212 -274 -551 -320 -790 -2 -11 -8 -42 -13 -70 -6 -27 -13
-75 -16 -105 -4 -30 -10 -75 -15 -100 -9 -46 -6 -490 3 -525 2 -11 8 -47 12
-80 20 -179 106 -478 188 -655 17 -36 31 -68 31 -71 1 -8 40 -83 46 -89 3 -3
12 -18 20 -35 33 -65 137 -225 209 -320 93 -122 315 -348 431 -437 209 -161
411 -276 655 -373 11 -4 25 -9 30 -11 6 -2 53 -17 105 -34 130 -42 151 -48
180 -54 14 -2 59 -11 100 -20 234 -47 583 -61 770 -30 19 3 50 7 69 9 40 5 86
12 121 20 14 3 45 10 70 15 25 5 56 13 70 18 14 5 27 10 30 10 25 0 209 60
280 90 19 9 40 16 45 18 13 2 174 82 245 121 99 55 120 68 120 76 0 4 5 7 11
7 11 0 80 46 118 79 13 12 27 21 31 21 3 0 15 8 26 18 10 9 42 35 69 57 77 61
285 271 351 355 198 248 338 508 433 800 27 85 71 251 76 290 1 8 4 29 8 45 7
34 14 80 24 164 9 68 8 488 -1 551 -3 25 -8 59 -11 75 -3 17 -8 50 -11 75 -8
61 -67 292 -94 365 -12 33 -23 67 -25 75 -6 26 -32 86 -111 255 -54 114 -205
349 -279 432 -5 6 -25 31 -44 55 -112 141 -398 391 -571 498 -30 19 -57 37
-60 40 -3 3 -23 14 -45 25 -22 11 -42 22 -45 25 -7 7 -97 51 -185 90 -84 38
-148 61 -274 101 -87 27 -115 34 -166 44 -11 2 -49 11 -85 18 -36 8 -94 18
-130 22 -36 5 -74 10 -85 12 -30 6 -472 13 -477 7z"/>
</g>
</svg>
